HIERARCHY
ROOT Hips
{
	OFFSET 0.000000 0.000000 0.000000
	CHANNELS 6 Xposition Yposition Zposition Yrotation Xrotation Zrotation
	JOINT Chest
	{
		OFFSET 0.000000 -0.009281 11.569106
		CHANNELS 3 Yrotation Xrotation Zrotation
		JOINT Chest2
		{
			OFFSET -0.000000 0.016865 9.269641
			CHANNELS 3 Yrotation Xrotation Zrotation
			JOINT Chest3
			{
				OFFSET -0.000000 0.000001 8.374491
				CHANNELS 3 Yrotation Xrotation Zrotation
				JOINT Chest4
				{
					OFFSET -0.000000 0.000001 8.374493
					CHANNELS 3 Yrotation Xrotation Zrotation
					JOINT Neck
					{
						OFFSET -0.000000 0.000002 12.152554
						CHANNELS 3 Yrotation Xrotation Zrotation
						JOINT Head
						{
							OFFSET -0.000000 0.040101 7.802319
							CHANNELS 3 Yrotation Xrotation Zrotation
							End Site
							{
								OFFSET -0.000000 0.020947 14.853096
							}
						}
					}
					JOINT RightCollar
					{
						OFFSET 2.894404 0.000001 6.791374
						CHANNELS 3 Yrotation Xrotation Zrotation
						JOINT RightShoulder
						{
							OFFSET 13.574684 0.000001 0.000000
							CHANNELS 3 Yrotation Xrotation Zrotation
							JOINT RightElbow
							{
								OFFSET 23.923903 0.000002 0.000000
								CHANNELS 3 Yrotation Xrotation Zrotation
								JOINT RightWrist
								{
									OFFSET 19.846718 0.012767 0.000000
									CHANNELS 3 Yrotation Xrotation Zrotation
									End Site
									{
										OFFSET 14.973145 0.000001 0.000000
									}
								}
							}
						}
					}
					JOINT LeftCollar
					{
						OFFSET -2.894404 0.000001 6.791374
						CHANNELS 3 Yrotation Xrotation Zrotation
						JOINT LeftShoulder
						{
							OFFSET -13.574684 -0.000001 0.000000
							CHANNELS 3 Yrotation Xrotation Zrotation
							JOINT LeftElbow
							{
								OFFSET -23.923903 -0.000002 0.000000
								CHANNELS 3 Yrotation Xrotation Zrotation
								JOINT LeftWrist
								{
									OFFSET -19.846718 0.012763 0.000000
									CHANNELS 3 Yrotation Xrotation Zrotation
									End Site
									{
										OFFSET -14.973145 -0.000001 0.000000
									}
								}
							}
						}
					}
				}
			}
		}
	}
	JOINT RightHip
	{
		OFFSET 9.469263 0.004643 0.045487
		CHANNELS 3 Yrotation Xrotation Zrotation
		JOINT RightKnee
		{
			OFFSET 0.000000 0.002661 -40.478676
			CHANNELS 3 Yrotation Xrotation Zrotation
			JOINT RightAnkle
			{
				OFFSET 0.000000 0.049106 -35.224068
				CHANNELS 3 Yrotation Xrotation Zrotation
				JOINT RightToe
				{
					OFFSET -0.000001 12.539529 -6.151390
					CHANNELS 3 Yrotation Xrotation Zrotation
					End Site
					{
						OFFSET -0.000001 5.044994 -1.291870
					}
				}
			}
		}
	}
	JOINT LeftHip
	{
		OFFSET -9.469263 0.004641 0.045487
		CHANNELS 3 Yrotation Xrotation Zrotation
		JOINT LeftKnee
		{
			OFFSET 0.000000 0.002661 -40.478676
			CHANNELS 3 Yrotation Xrotation Zrotation
			JOINT LeftAnkle
			{
				OFFSET 0.000000 0.049106 -35.224068
				CHANNELS 3 Yrotation Xrotation Zrotation
				JOINT LeftToe
				{
					OFFSET -0.000001 12.539529 -6.151390
					CHANNELS 3 Yrotation Xrotation Zrotation
					End Site
					{
						OFFSET -0.000001 5.044994 -1.291870
					}
				}
			}
		}
	}
}
MOTION
Frames: 17
Frame Time: 0.016667
8.227377 6.676580 83.183830 -5.081484 -1.150330 -106.936925 -1.644049 -6.130736 2.234601 -0.696146 -2.731575 0.997150 -0.696146 -2.731576 0.997149 -0.517552 -2.049827 0.744608 2.073181 -23.950885 -0.987689 3.471571 -8.291949 -1.245960 10.415151 3.093870 -5.402344 65.762803 23.807926 -0.329529 -10.209272 -31.783848 10.952617 -43.982330 19.297405 44.271866 -9.492808 -0.384733 -5.173035 -63.287638 28.882322 -4.824816 1.564487 -5.026130 -5.348034 50.255822 1.292785 -54.617925 -0.632837 -3.935209 -0.567117 2.250650 -4.519515 -9.981667 -1.805710 3.062199 1.199949 -0.016825 -0.025609 -0.009194 -0.706291 -5.591447 1.691901 0.747035 -2.724146 -0.319867 -0.830486 3.215589 1.216795 -0.057145 0.001854 -0.001855 
8.197403 6.705352 83.184845 -5.075437 -1.167922 -107.030984 -1.646684 -6.259207 2.230006 -0.696700 -2.788034 0.996647 -0.696699 -2.788034 0.996649 -0.517873 -2.092173 0.744159 2.063779 -23.946913 -1.033046 3.443126 -8.283618 -1.329703 10.442562 3.233610 -5.342423 65.008648 24.203243 -1.144245 -9.596505 -30.849096 10.401705 -41.249596 17.988417 43.843394 -9.548406 -0.224843 -5.109494 -62.422492 29.333368 -3.966736 1.376552 -4.611602 -4.911917 47.149342 -0.358386 -53.088625 -0.635846 -3.894585 -0.603600 2.239541 -4.525128 -9.913068 -1.780248 3.018945 1.268190 -0.024919 -0.022920 -0.006511 -0.710473 -5.561051 1.705975 0.742430 -2.750495 -0.315727 -0.791263 3.211091 1.271463 -0.062011 0.004335 -0.004470 
8.165328 6.737168 83.185051 -5.051475 -1.178065 -107.113246 -1.656376 -6.391954 2.228694 -0.699298 -2.845924 0.998495 -0.699299 -2.845924 0.998496 -0.519714 -2.135594 0.745462 2.065690 -23.939202 -1.087567 3.432648 -8.268280 -1.426956 10.502071 3.264715 -5.242475 64.049628 24.793411 -1.967753 -8.543579 -28.997541 9.967576 -36.878377 15.735653 42.719377 -9.624837 0.027729 -5.013286 -61.299787 29.842159 -2.914239 1.024244 -4.296302 -4.754794 43.473136 -1.710810 -50.772064 -0.637381 -3.840466 -0.653169 2.221669 -4.510656 -9.847545 -1.749681 2.964544 1.336330 -0.033550 -0.024757 -0.004244 -0.711113 -5.517525 1.709330 0.727587 -2.764874 -0.308759 -0.751725 3.207108 1.320388 -0.061667 0.000100 -0.006469 
8.129377 6.767676 83.185410 -4.994888 -1.181998 -107.193412 -1.665280 -6.505091 2.216629 -0.702039 -2.895380 0.994223 -0.702039 -2.895379 0.994224 -0.521705 -2.172687 0.742184 2.072156 -23.944732 -1.139199 3.431113 -8.277608 -1.518129 10.526370 3.314187 -5.184466 62.917736 25.409284 -2.806630 -7.049927 -26.388263 9.389439 -31.452809 12.650394 40.622950 -9.693429 0.152679 -4.912534 -59.873356 30.701130 -1.704687 0.378471 -4.021883 -5.095027 38.249524 -3.540998 -46.931531 -0.633344 -3.760952 -0.675159 2.206468 -4.480757 -9.817049 -1.719820 2.900258 1.394976 -0.041774 -0.023374 -0.002000 -0.700646 -5.440536 1.729240 0.703560 -2.766405 -0.309198 -0.721296 3.186272 1.358170 -0.052319 -0.000972 -0.007152 
8.088141 6.796835 83.187225 -4.920802 -1.180666 -107.264631 -1.684055 -6.604306 2.225357 -0.708482 -2.939618 0.998100 -0.708483 -2.939619 0.998098 -0.526442 -2.205880 0.745000 2.102798 -23.971864 -1.213689 3.467252 -8.326788 -1.644626 10.442902 3.517781 -5.359293 61.810364 25.761785 -3.592009 -5.535425 -23.538893 8.526748 -26.498139 9.348774 37.641862 -9.623087 0.040761 -4.805884 -58.375755 31.779764 -0.665521 -0.229172 -3.382713 -5.568708 31.356463 -5.716812 -41.806478 -0.622315 -3.670711 -0.662244 2.186288 -4.437953 -9.842101 -1.684765 2.827745 1.467726 -0.050503 -0.018077 -0.000029 -0.681624 -5.354675 1.757238 0.671053 -2.737976 -0.319494 -0.698019 3.143900 1.385840 -0.038227 -0.001359 -0.007760 
8.048504 6.824745 83.190781 -4.838449 -1.172650 -107.319511 -1.705550 -6.718269 2.264250 -0.716657 -2.989961 1.015400 -0.716657 -2.989961 1.015403 -0.532401 -2.243671 0.757872 2.151725 -24.010753 -1.320141 3.528199 -8.397268 -1.824089 10.348935 3.798207 -5.498317 60.701086 26.074768 -4.378242 -4.352773 -20.776174 7.500404 -22.210896 6.470966 34.499583 -9.506098 0.071539 -4.731231 -56.828731 32.690129 0.253971 -0.880711 -2.283755 -5.548899 25.719023 -7.106794 -36.662574 -0.612084 -3.570711 -0.628577 2.166340 -4.383862 -9.913577 -1.647389 2.746761 1.548453 -0.059589 -0.014191 0.002124 -0.666764 -5.268866 1.794783 0.645994 -2.686822 -0.355132 -0.686559 3.087101 1.410459 -0.021448 0.000409 -0.009222 
8.003763 6.855639 83.193581 -4.746177 -1.156248 -107.355943 -1.723239 -6.852836 2.317990 -0.722902 -3.050292 1.038506 -0.722901 -3.050291 1.038506 -0.536862 -2.288957 0.775087 2.201489 -24.051818 -1.443433 3.586476 -8.471491 -2.033614 10.288107 3.971991 -5.426881 59.483387 26.645147 -5.179762 -3.297829 -17.861983 6.511010 -18.054656 3.779817 31.271393 -9.446713 0.539139 -4.686418 -55.206179 33.064833 1.302077 -1.210147 -0.832979 -5.172512 21.636721 -7.931854 -32.381845 -0.610728 -3.466853 -0.577072 2.155163 -4.319020 -10.007761 -1.607950 2.667133 1.621965 -0.069793 -0.013390 0.004183 -0.660613 -5.168476 1.814311 0.625476 -2.625843 -0.387325 -0.678140 3.020434 1.456700 -0.005185 0.000085 -0.011524 
7.956531 6.892669 83.195427 -4.640431 -1.133113 -107.367070 -1.724113 -6.985951 2.351114 -0.720809 -3.109534 1.052410 -0.720809 -3.109534 1.052410 -0.535116 -2.333401 0.785446 2.226911 -24.093472 -1.557966 3.603377 -8.546945 -2.233580 10.197063 4.099170 -5.285688 58.071607 27.336908 -6.066969 -2.218936 -14.707277 5.675048 -13.687265 1.189464 27.628868 -9.415932 1.055277 -4.576246 -53.626284 33.283935 2.362245 -1.261984 0.806976 -4.807683 17.741007 -7.755039 -28.474719 -0.620105 -3.344493 -0.526572 2.154381 -4.256407 -10.106683 -1.562216 2.586670 1.697764 -0.082871 -0.013710 0.005831 -0.654010 -5.049059 1.813679 0.601921 -2.562926 -0.415801 -0.673577 2.948881 1.483380 0.012458 -0.001838 -0.015298 
7.908037 6.936837 83.197487 -4.524852 -1.107406 -107.357187 -1.730755 -7.113192 2.380701 -0.720318 -3.165835 1.064231 -0.720318 -3.165833 1.064229 -0.534585 -2.375641 0.794237 2.252345 -24.117989 -1.668550 3.621269 -8.590712 -2.426095 10.061880 4.309359 -5.299222 56.529863 27.874437 -7.026799 -1.166316 -11.396352 4.933629 -8.914070 -1.161059 23.485423 -9.342943 1.307671 -4.478209 -51.903864 34.017098 3.407642 -1.432936 2.261254 -4.698569 13.260945 -7.176808 -24.219561 -0.627752 -3.212552 -0.481585 2.151202 -4.194303 -10.206204 -1.509324 2.503539 1.725857 -0.096599 -0.011841 0.007291 -0.649785 -4.908246 1.815179 0.577146 -2.512512 -0.454538 -0.670353 2.878071 1.495448 0.032464 -0.003872 -0.019805 
7.854502 6.983998 83.199600 -4.399090 -1.080749 -107.327844 -1.741809 -7.232428 2.400345 -0.722443 -3.219123 1.071534 -0.722443 -3.219123 1.071534 -0.536042 -2.415622 0.799632 2.276388 -24.125898 -1.767960 3.639379 -8.603852 -2.598574 9.818039 4.547350 -5.401403 55.032600 28.203116 -7.974563 -0.241702 -8.040708 4.186648 -4.274259 -3.213073 19.268295 -9.222156 1.386766 -4.369807 -49.966153 34.996817 4.367719 -1.882960 3.994146 -4.694640 8.316489 -6.777980 -19.426320 -0.638641 -3.062551 -0.442464 2.149423 -4.144133 -10.308708 -1.451570 2.420889 1.773761 -0.106690 -0.008529 0.010183 -0.638293 -4.746353 1.807454 0.549082 -2.472047 -0.508044 -0.672038 2.805403 1.502544 0.052634 -0.006251 -0.022592 
7.796875 7.035343 83.201714 -4.281447 -1.051015 -107.283106 -1.755853 -7.370669 2.428166 -0.726794 -3.280955 1.081895 -0.726794 -3.280956 1.081895 -0.539135 -2.462017 0.807295 2.307149 -24.115737 -1.871753 3.668262 -8.583388 -2.776873 9.546351 4.771391 -5.548893 53.620865 28.384412 -8.826282 0.396760 -4.853501 3.445359 -0.046843 -4.986924 15.155718 -9.096831 1.546084 -4.302694 -47.836036 35.772597 5.310813 -2.379699 6.277761 -4.604236 3.334127 -7.020556 -14.442730 -0.654337 -2.905357 -0.397376 2.154738 -4.118524 -10.416009 -1.399316 2.348053 1.784033 -0.113668 -0.004529 0.011919 -0.634071 -4.583471 1.799682 0.521713 -2.434737 -0.569276 -0.675491 2.724654 1.509218 0.072169 -0.006328 -0.023153 
7.735525 7.090995 83.203743 -4.171880 -1.019605 -107.233027 -1.753652 -7.536228 2.460589 -0.724031 -3.354857 1.093423 -0.724031 -3.354857 1.093423 -0.536862 -2.517451 0.815855 2.330452 -24.093533 -1.981271 3.682139 -8.540571 -2.967114 9.325682 4.987897 -5.550432 52.144704 28.654361 -9.706534 0.660254 -2.206946 2.801385 3.750562 -6.418242 11.155982 -9.027397 1.958987 -4.223697 -45.591841 36.248948 6.319167 -2.644490 8.623735 -4.369150 -1.411917 -7.650001 -9.572102 -0.679205 -2.739967 -0.342037 2.161760 -4.118759 -10.512307 -1.344930 2.284559 1.771270 -0.116571 -0.001293 0.014312 -0.636164 -4.422934 1.818087 0.496408 -2.399123 -0.636112 -0.678598 2.639957 1.495439 0.087766 -0.006688 -0.024732 
7.671451 7.149262 83.205551 -4.068433 -0.988584 -107.178236 -1.746298 -7.727997 2.487054 -0.718860 -3.440063 1.101805 -0.718860 -3.440064 1.101806 -0.532776 -2.581356 0.822056 2.346982 -24.061822 -2.085672 3.684967 -8.480257 -3.149727 9.065389 5.260229 -5.557497 50.646734 28.936974 -10.605263 0.612537 -0.284418 2.219714 7.170499 -7.720407 7.434602 -8.936308 2.516981 -4.107871 -43.394046 36.615244 7.330952 -2.514034 10.443644 -4.037677 -5.803590 -8.290517 -5.099754 -0.705554 -2.568045 -0.292553 2.167228 -4.140955 -10.581053 -1.291432 2.226444 1.748424 -0.116492 0.003604 0.016134 -0.642726 -4.263258 1.872500 0.473650 -2.365709 -0.712543 -0.681102 2.548588 1.465712 0.100302 -0.005089 -0.025737 
7.605991 7.214039 83.208115 -3.976996 -0.961130 -107.121040 -1.732716 -7.943546 2.502137 -0.709562 -3.535647 1.104736 -0.709562 -3.535648 1.104731 -0.525607 -2.653033 0.824180 2.351216 -24.016540 -2.181293 3.667678 -8.395012 -3.319480 8.764118 5.615389 -5.599572 49.065063 29.221001 -11.502654 0.448131 0.929832 1.617728 10.142397 -9.074824 4.129079 -8.821935 3.046059 -3.941318 -41.335837 37.101991 8.238769 -2.026663 11.581197 -3.689995 -9.822448 -8.776707 -1.212428 -0.733863 -2.394886 -0.262635 2.166563 -4.188186 -10.609465 -1.232563 2.172531 1.693399 -0.114602 0.011207 0.018074 -0.644349 -4.104146 1.932037 0.436038 -2.353621 -0.790437 -0.678344 2.456935 1.419343 0.113837 0.002040 -0.028349 
7.539659 7.286775 83.211853 -3.889802 -0.934951 -107.065271 -1.716918 -8.154653 2.510603 -0.697853 -3.629435 1.104157 -0.697853 -3.629435 1.104152 -0.516652 -2.723350 0.823690 2.345405 -23.968186 -2.268691 3.634288 -8.304316 -3.477025 8.471924 5.981665 -5.714250 47.501572 29.295651 -12.306201 0.195961 1.751872 0.977185 12.789296 -10.237404 1.259410 -8.702401 3.417682 -3.789982 -39.240670 37.715236 9.108034 -1.497072 12.300389 -3.311611 -13.394135 -9.168419 2.083575 -0.771782 -2.212352 -0.238066 2.171711 -4.258729 -10.623155 -1.170744 2.121498 1.636702 -0.111582 0.022195 0.023317 -0.644064 -3.931518 1.970173 0.380279 -2.372576 -0.871641 -0.664093 2.364409 1.399621 0.128102 0.016608 -0.034189 
7.470964 7.368836 83.216713 -3.805149 -0.904686 -107.007440 -1.698346 -8.358459 2.519815 -0.684678 -3.720200 1.104881 -0.684678 -3.720199 1.104881 -0.506596 -2.791401 0.824197 2.333332 -23.916128 -2.353981 3.590035 -8.206932 -3.632377 8.178397 6.286441 -5.895862 46.082644 29.147177 -12.948379 -0.127847 2.556751 0.331681 14.977107 -11.254162 -1.251184 -8.573195 3.664000 -3.664701 -37.226628 38.287216 9.842256 -0.991218 13.019874 -2.904776 -16.399841 -9.568450 4.959297 -0.823105 -2.023675 -0.207929 2.187532 -4.336604 -10.641175 -1.107079 2.068397 1.557655 -0.111181 0.033429 0.029057 -0.655066 -3.745990 1.977239 0.329243 -2.411155 -0.954734 -0.649901 2.260397 1.407660 0.140607 0.039763 -0.039678 
7.394657 7.458450 83.221603 -3.716025 -0.873397 -106.951603 -1.690504 -8.566790 2.542101 -0.676329 -3.813952 1.111021 -0.676329 -3.813952 1.111021 -0.500119 -2.861709 0.828733 2.333751 -23.855892 -2.436877 3.568560 -8.094340 -3.780177 7.932446 6.677478 -6.111341 44.722979 28.844022 -13.552819 -0.552884 3.241521 -0.290453 16.698515 -12.113358 -3.415849 -8.408010 4.008945 -3.486739 -35.351539 38.576396 10.444739 -0.486930 13.938537 -2.503796 -18.785718 -10.085115 7.507007 -0.886327 -1.807588 -0.173879 2.219144 -4.445893 -10.673183 -1.044766 2.021894 1.484935 -0.110536 0.045827 0.033373 -0.675948 -3.543189 1.979630 0.293741 -2.460213 -1.043447 -0.642344 2.148656 1.418486 0.151412 0.061158 -0.041957 
